<?xml version="1.0" standalone="no"?>
<!DOCTYPE svg PUBLIC "-//W3C//DTD SVG 20010904//EN"
 "http://www.w3.org/TR/2001/REC-SVG-20010904/DTD/svg10.dtd">
<svg version="1.0" xmlns="http://www.w3.org/2000/svg"
 width="1000.000000pt" height="1000.000000pt" viewBox="0 0 1000.000000 1000.000000"
 preserveAspectRatio="xMidYMid meet">
<metadata>
Created by potrace 1.14, written by Peter Selinger 2001-2017
</metadata>
<g transform="translate(0.000000,1000.000000) scale(0.100000,-0.100000)"
fill="#000000" stroke="none">
<path d="M4937 9042 c-45 -4 -46 -27 -2 -27 32 0 46 -21 18 -27 -23 -6 -76 20
-68 32 10 15 -18 12 -43 -6 -14 -9 -43 -15 -79 -15 -32 1 -87 -4 -123 -9 -36
-6 -129 -14 -207 -19 -78 -5 -146 -12 -152 -16 -6 -3 -70 -17 -141 -30 -71
-13 -137 -28 -147 -33 -10 -6 -31 -15 -48 -22 -16 -7 -46 -21 -65 -30 -19 -10
-70 -27 -113 -39 -68 -19 -147 -53 -212 -94 -46 -28 -169 -143 -191 -179 -13
-21 -31 -38 -39 -38 -8 0 -15 -9 -15 -19 0 -11 -11 -32 -24 -48 -33 -40 -47
-69 -40 -86 3 -8 -2 -17 -10 -20 -9 -4 -16 -13 -16 -20 0 -8 -10 -26 -21 -41
-22 -28 -19 -47 4 -27 25 20 7 -40 -20 -65 -12 -12 -23 -25 -23 -30 0 -4 5 -3
12 4 17 17 25 15 30 -6 3 -10 -3 -29 -13 -41 -23 -28 -24 -57 -4 -65 9 -3 15
-11 14 -18 -1 -7 1 -21 6 -31 4 -10 1 -27 -9 -42 -10 -16 -12 -25 -5 -25 11 0
7 -43 -7 -92 -4 -13 -1 -16 10 -12 11 4 16 1 16 -10 0 -9 -4 -16 -10 -16 -5 0
-13 -18 -16 -40 -4 -22 -13 -45 -20 -51 -8 -6 -14 -22 -14 -35 0 -12 -4 -26
-10 -29 -5 -3 -10 -15 -10 -25 0 -11 -13 -42 -30 -68 -16 -27 -30 -54 -30 -61
0 -6 -8 -30 -19 -54 -36 -83 -61 -150 -61 -168 0 -10 -4 -21 -10 -24 -5 -3
-10 -14 -10 -23 0 -9 -7 -30 -16 -47 -15 -29 -12 -75 5 -75 5 0 7 9 4 20 -3
10 3 32 14 47 10 15 27 46 38 68 26 53 61 86 82 78 12 -5 15 -2 10 10 -8 21
24 92 42 92 7 0 20 20 28 45 8 25 22 52 32 60 17 15 38 49 60 98 6 12 14 22
19 22 4 0 14 16 22 35 8 19 20 35 27 35 7 0 13 11 13 26 0 21 4 25 20 21 16
-4 19 -1 14 17 -6 24 31 64 78 84 24 10 27 9 30 -11 4 -29 22 -24 26 8 2 14
10 25 18 25 11 0 14 -15 14 -66 0 -71 27 -207 39 -199 5 2 6 48 4 102 -6 137
4 184 41 196 20 7 35 6 46 -1 13 -8 23 -7 38 3 12 9 43 14 83 14 47 -1 66 3
75 15 8 12 20 15 37 11 14 -4 28 -2 32 4 4 7 13 8 23 2 23 -11 65 -7 70 7 6
19 18 14 31 -15 9 -20 14 -24 21 -14 6 10 20 12 48 8 35 -6 40 -4 45 15 6 21
7 21 26 4 15 -14 38 -19 86 -20 36 0 66 3 68 8 2 5 17 -1 34 -13 20 -15 36
-20 44 -15 18 11 52 13 64 5 6 -4 34 -5 63 -3 44 3 59 10 87 38 28 28 35 31
45 19 14 -16 60 -20 76 -6 15 14 64 23 64 11 0 -5 -6 -10 -12 -10 -7 0 -5 -5
5 -11 10 -6 21 -8 24 -5 4 3 12 1 19 -5 9 -7 19 -7 33 1 12 6 47 12 80 13 51
2 57 0 53 -15 -2 -10 0 -18 6 -18 15 0 66 23 73 32 3 4 19 4 36 -1 17 -5 34
-7 37 -4 3 3 13 0 21 -7 22 -18 175 -27 185 -11 10 17 166 19 182 3 15 -15
140 -16 154 -2 6 6 44 13 85 15 62 3 79 0 109 -18 19 -11 37 -23 40 -26 3 -4
11 -6 18 -7 6 -1 18 -2 25 -2 7 -1 47 -34 88 -72 40 -39 84 -78 97 -87 12 -8
22 -21 22 -27 0 -7 16 -27 35 -46 19 -19 35 -38 35 -44 0 -5 20 -36 45 -67 25
-32 45 -61 45 -67 0 -5 9 -17 21 -28 14 -12 19 -27 16 -43 -5 -23 15 -67 36
-82 5 -3 8 -8 6 -10 -4 -8 13 -49 21 -49 11 0 40 -58 40 -79 0 -9 7 -29 15
-45 8 -15 15 -36 15 -46 0 -11 10 -20 30 -24 26 -5 30 -9 25 -29 -7 -25 16
-54 34 -43 5 4 12 2 16 -4 3 -5 17 -10 31 -10 17 0 24 -5 24 -19 0 -11 5 -23
11 -27 7 -4 9 -21 6 -40 -5 -31 -3 -34 18 -34 27 0 44 -35 26 -53 -7 -7 -13
-3 -20 14 -9 23 -10 22 -10 -9 -1 -31 20 -68 31 -56 3 2 12 -10 21 -27 14 -31
14 -33 -15 -73 -25 -35 -29 -47 -24 -82 4 -32 1 -45 -13 -58 -10 -9 -20 -14
-23 -11 -3 3 -11 -2 -18 -10 -11 -13 -10 -18 9 -31 15 -11 20 -22 16 -35 -4
-11 -2 -19 4 -19 14 0 14 -67 1 -75 -14 -8 -13 -92 1 -101 8 -4 7 -9 -2 -15
-9 -5 -14 -28 -14 -62 l0 -53 33 0 c25 0 34 5 38 22 3 13 3 27 0 32 -3 5 2 9
12 8 13 -1 17 6 15 27 -2 34 14 35 27 2 12 -31 38 -33 42 -2 2 13 15 28 34 37
18 8 40 27 50 42 11 16 25 28 32 28 9 0 11 7 7 21 -5 14 0 27 14 40 25 23 27
45 5 53 -30 11 -52 6 -57 -14 -6 -22 -46 -28 -48 -7 -9 75 -8 86 6 80 8 -3 15
-11 15 -19 0 -8 7 -14 15 -14 22 0 19 13 -10 44 -21 23 -28 26 -41 15 -8 -6
-15 -10 -17 -8 -31 55 -26 74 17 63 26 -6 27 -5 20 22 -3 16 -18 50 -32 76
-13 26 -22 54 -19 62 9 22 25 20 23 -1 0 -10 5 -17 12 -15 7 1 12 -8 12 -23 0
-14 8 -29 21 -36 20 -10 21 -9 14 23 -4 18 -14 45 -21 60 -8 15 -14 35 -14 45
0 10 -7 29 -16 42 -16 23 -16 72 2 129 5 18 2 24 -15 29 -11 3 -21 12 -21 20
0 13 3 13 15 3 18 -15 18 -16 0 44 -19 62 -19 76 0 76 19 0 19 17 0 50 -8 14
-14 39 -15 57 0 17 -6 38 -14 46 -8 7 -17 40 -21 73 -5 36 -25 96 -51 155 -24
53 -44 101 -44 107 0 6 -8 18 -17 27 -13 14 -14 21 -5 35 7 12 8 20 1 22 -5 2
-12 17 -15 33 -3 17 -17 42 -31 57 -24 25 -25 30 -14 52 14 25 7 51 -10 41 -5
-4 -9 -2 -9 4 0 5 5 13 10 16 16 10 12 35 -7 41 -10 3 -27 9 -38 14 -11 5 -28
11 -37 14 -26 8 -22 26 5 26 31 0 40 10 24 28 -6 8 -12 29 -12 46 0 29 -3 31
-37 34 -42 4 -47 13 -20 39 21 21 57 111 48 120 -3 4 -12 -1 -19 -10 -7 -10
-30 -18 -57 -19 -44 -3 -45 -2 -48 30 -2 18 1 32 7 32 19 0 12 31 -11 51 -28
22 -51 24 -68 4 -14 -17 -40 -20 -40 -6 0 6 5 13 10 16 6 3 10 14 10 23 0 13
-3 12 -16 -6 -27 -38 -35 -26 -28 43 6 58 5 65 -9 59 -12 -4 -18 2 -22 23 -10
44 -14 53 -22 53 -4 0 -9 -12 -9 -26 -1 -14 -4 -28 -7 -31 -11 -10 -27 9 -27
33 0 14 -7 27 -17 31 -31 12 -83 66 -83 86 0 10 -9 21 -20 24 -13 4 -20 14
-20 30 0 21 -3 22 -20 13 -11 -6 -20 -19 -20 -30 0 -17 -3 -18 -25 -8 -28 13
-40 38 -44 91 -1 13 -7 16 -26 11 -18 -4 -25 -2 -25 8 0 8 -16 29 -35 48 -37
36 -49 34 -15 -2 11 -12 20 -25 20 -28 0 -7 -51 -33 -55 -28 -7 11 -35 78 -35
85 0 4 -12 16 -26 27 -26 19 -34 16 -48 -19 -2 -5 -30 15 -62 46 -66 62 -122
104 -131 96 -3 -3 4 -12 16 -19 13 -8 21 -23 21 -40 0 -15 5 -30 10 -33 6 -3
10 3 10 14 0 27 12 27 35 1 18 -20 18 -21 -4 -43 -21 -21 -23 -21 -35 -5 -7
10 -28 21 -46 25 -19 3 -65 23 -104 43 -42 22 -93 40 -126 44 -30 4 -68 9 -85
12 -16 2 -64 9 -105 14 -41 6 -91 14 -110 18 -19 4 -52 6 -73 4z m-227 -92 c0
-5 -2 -10 -4 -10 -3 0 -8 5 -11 10 -3 6 -1 10 4 10 6 0 11 -4 11 -10z m1070
-95 c0 -8 -4 -15 -9 -15 -13 0 -22 16 -14 24 11 11 23 6 23 -9z m-1125 -5 c-3
-5 -13 -10 -21 -10 -8 0 -14 5 -14 10 0 6 9 10 21 10 11 0 17 -4 14 -10z m336
-35 c-1 -15 -24 -12 -29 3 -3 9 2 13 12 10 10 -1 17 -7 17 -13z m799 -78 c0
-5 -4 -5 -10 -2 -5 3 -10 14 -10 23 0 15 2 15 10 2 5 -8 10 -19 10 -23z m110
-1 c0 -3 -4 -8 -10 -11 -5 -3 -10 -1 -10 4 0 6 5 11 10 11 6 0 10 -2 10 -4z
m270 -176 c0 -5 -6 -10 -14 -10 -8 0 -18 5 -21 10 -3 6 3 10 14 10 12 0 21 -4
21 -10z m11 -83 c-13 -13 -26 -3 -16 12 3 6 11 8 17 5 6 -4 6 -10 -1 -17z
m-382 -164 c2 -2 2 -5 -1 -8 -6 -6 -47 31 -68 60 -8 11 4 4 25 -15 22 -19 42
-36 44 -37z m-2489 36 c0 -5 -7 -9 -15 -9 -9 0 -12 6 -9 15 6 15 24 11 24 -6z
m-58 -401 c-7 -7 -12 -8 -12 -2 0 14 12 26 19 19 2 -3 -1 -11 -7 -17z m1843
12 c-3 -5 -11 -10 -16 -10 -6 0 -7 5 -4 10 3 6 11 10 16 10 6 0 7 -4 4 -10z
m539 -6 c24 -9 19 -19 -9 -20 -15 -1 -25 3 -25 12 0 15 10 17 34 8z m1056
-225 c0 -4 -7 -6 -15 -3 -8 4 -15 10 -15 15 0 4 7 6 15 3 8 -4 15 -10 15 -15z
m-3460 -19 c0 -5 -4 -10 -10 -10 -5 0 -10 5 -10 10 0 6 5 10 10 10 6 0 10 -4
10 -10z m3620 -519 c13 -26 13 -31 -5 -31 -16 0 -38 34 -28 44 11 11 22 6 33
-13z m25 -279 c0 -18 -20 -15 -23 4 -3 10 1 15 10 12 7 -3 13 -10 13 -16z
m-39 -379 c-13 -13 -34 7 -29 27 l6 21 14 -21 c8 -12 13 -24 9 -27z m64 -83
c0 -5 -4 -10 -10 -10 -5 0 -10 5 -10 10 0 6 5 10 10 10 6 0 10 -4 10 -10z
m-66 -76 c9 -22 -3 -32 -14 -14 -12 19 -12 30 -1 30 5 0 12 -7 15 -16z m-59
-44 c3 -5 -1 -10 -10 -10 -9 0 -13 5 -10 10 3 6 8 10 10 10 2 0 7 -4 10 -10z
m82 -46 c-9 -9 -28 6 -21 18 4 6 10 6 17 -1 6 -6 8 -13 4 -17z m-57 -30 c0 -8
-7 -14 -15 -14 -15 0 -21 21 -9 33 10 9 24 -2 24 -19z"/>
<path d="M6062 8750 c0 -14 2 -19 5 -12 2 6 2 18 0 25 -3 6 -5 1 -5 -13z"/>
<path d="M4960 7920 c0 -5 4 -10 9 -10 6 0 13 5 16 10 3 6 -1 10 -9 10 -9 0
-16 -4 -16 -10z"/>
<path d="M3042 7208 c-16 -21 -24 -58 -13 -58 6 0 11 7 11 15 0 8 4 15 9 15 5
0 11 9 14 20 6 22 -5 27 -21 8z"/>
<path d="M2987 7031 c-19 -32 -23 -66 -6 -56 5 4 8 12 6 18 -2 6 5 20 15 31
19 21 23 36 10 36 -4 0 -15 -13 -25 -29z"/>
<path d="M6682 6883 c4 -36 32 -39 32 -3 0 16 -6 26 -18 28 -14 3 -17 -2 -14
-25z"/>
<path d="M6670 6776 c0 -8 5 -18 10 -21 6 -3 10 3 10 14 0 12 -4 21 -10 21 -5
0 -10 -6 -10 -14z"/>
<path d="M6762 6720 c0 -14 2 -19 5 -12 2 6 2 18 0 25 -3 6 -5 1 -5 -13z"/>
<path d="M6691 6714 c0 -11 3 -14 6 -6 3 7 2 16 -1 19 -3 4 -6 -2 -5 -13z"/>
<path d="M2917 6603 c-4 -3 -7 -13 -7 -22 1 -13 3 -13 11 2 11 19 8 33 -4 20z"/>
<path d="M2917 6503 c-11 -10 -8 -63 3 -63 6 0 10 16 10 35 0 36 -2 40 -13 28z"/>
<path d="M2911 6394 c0 -11 3 -14 6 -6 3 7 2 16 -1 19 -3 4 -6 -2 -5 -13z"/>
<path d="M5090 6386 c0 -17 -31 -40 -99 -74 -30 -15 -59 -36 -65 -47 -17 -30
-38 -44 -68 -45 -19 0 -28 -5 -28 -16 0 -10 6 -14 15 -10 8 3 15 1 15 -3 0 -5
3 -16 6 -25 4 -11 -4 -17 -33 -22 -47 -9 -83 -31 -83 -52 0 -21 48 -102 61
-102 5 0 7 -11 3 -26 -6 -24 -5 -26 16 -19 21 7 22 5 14 -21 -13 -41 -10 -137
4 -142 7 -2 12 -12 12 -22 0 -10 11 -28 24 -41 13 -13 22 -28 19 -35 -2 -7 0
-15 6 -19 6 -3 11 -1 11 4 0 6 7 11 15 11 8 0 15 -6 15 -14 0 -8 7 -16 15 -20
8 -3 12 -11 10 -19 -6 -14 56 -49 107 -61 15 -3 42 -19 60 -35 18 -15 44 -32
58 -35 14 -4 44 -16 67 -27 23 -10 62 -21 85 -23 24 -2 57 -9 75 -16 17 -6 46
-10 65 -8 l33 4 -27 12 c-16 6 -28 14 -28 17 0 13 47 22 69 13 19 -7 31 -4 53
12 18 13 49 23 81 25 63 5 139 31 117 39 -8 3 -58 7 -112 9 -74 3 -100 7 -113
21 -19 19 -19 19 12 35 18 9 22 8 26 -7 3 -9 4 -1 4 18 -2 25 2 35 13 36 8 0
32 4 53 9 33 6 38 11 33 30 -4 17 0 25 19 33 14 6 25 18 25 26 0 8 10 16 23
18 14 2 21 9 21 21 -2 23 4 22 33 -9 18 -20 27 -24 36 -15 15 15 108 14 128
-2 10 -7 36 -11 63 -9 39 3 49 8 57 29 11 28 46 28 41 0 -2 -15 2 -16 25 -11
45 10 51 23 23 44 -21 16 -42 19 -121 19 -130 -1 -157 6 -209 53 -31 28 -36
35 -15 23 27 -17 146 -48 153 -40 10 10 -21 43 -46 48 -16 3 -49 24 -73 46
-24 23 -48 41 -55 41 -6 0 -31 9 -55 19 -24 11 -73 24 -109 31 -36 6 -78 15
-95 20 -16 5 -68 12 -114 14 -47 3 -89 10 -95 16 -5 5 -6 10 -2 10 5 0 3 7 -4
15 -15 18 -5 34 12 17 8 -8 17 -8 32 0 35 19 98 20 118 1 12 -10 22 -13 26 -8
4 6 30 10 57 10 28 1 78 4 112 9 41 5 69 4 83 -4 11 -6 26 -8 32 -4 19 12 68
15 68 5 0 -5 10 -11 22 -13 13 -2 24 -11 26 -21 3 -15 -2 -18 -27 -15 -17 1
-31 -2 -31 -7 0 -6 14 -10 30 -11 17 -1 30 3 30 8 0 4 9 8 20 8 25 0 27 -27 3
-32 -13 -2 -8 -9 20 -25 20 -12 37 -27 37 -33 0 -5 11 -10 25 -10 14 0 25 -4
25 -10 0 -5 11 -10 25 -10 30 0 32 13 5 47 -26 34 -25 41 7 45 l28 3 -38 37
c-20 21 -37 41 -37 46 0 4 -19 27 -41 51 -26 27 -38 46 -31 50 6 4 9 16 6 28
-4 15 -17 22 -45 27 -21 3 -39 12 -39 19 0 19 -40 41 -53 28 -8 -8 -8 -11 1
-11 7 0 12 -5 12 -11 0 -8 -5 -7 -15 1 -10 8 -51 14 -108 15 -50 1 -100 6
-110 10 -10 4 -36 5 -57 2 -22 -3 -40 -1 -42 5 -2 6 -23 12 -45 14 -31 3 -44
0 -51 -12 -7 -13 -19 -15 -61 -9 -28 4 -53 11 -57 16 -10 17 -36 10 -30 -8 5
-16 5 -16 -6 -2 -10 12 -25 14 -73 9 -33 -3 -65 -8 -71 -12 -6 -4 -22 -1 -37
7 -22 11 -27 11 -27 1z m573 -35 c14 -2 7 -31 -9 -31 -14 0 -44 22 -44 33 0 4
26 3 53 -2z m-578 -21 c-3 -5 -13 -10 -21 -10 -8 0 -12 5 -9 10 3 6 13 10 21
10 8 0 12 -4 9 -10z m851 -16 l29 -16 -30 7 c-16 3 -34 11 -39 16 -16 15 9 11
40 -7z m-1031 -134 c-5 -8 -11 -8 -17 -2 -6 6 -7 16 -3 22 5 8 11 8 17 2 6 -6
7 -16 3 -22z m400 -276 c0 -56 22 -103 62 -133 16 -11 35 -26 43 -33 8 -7 19
-13 25 -13 5 0 11 -8 13 -17 5 -24 -34 -24 -47 -1 -8 14 -12 15 -25 4 -13 -11
-16 -11 -16 1 0 8 6 20 13 27 10 10 6 11 -18 5 -16 -3 -32 -7 -35 -7 -3 -1
-14 4 -25 10 -11 6 -37 13 -57 17 -20 4 -38 12 -41 19 -6 20 15 87 28 87 7 0
10 9 8 24 -4 17 3 29 23 45 38 30 49 22 49 -35z m341 40 c44 -18 84 -53 84
-73 0 -14 -76 -94 -101 -105 -10 -4 -11 -7 -1 -12 6 -3 12 -12 12 -20 0 -16
-45 -20 -55 -4 -8 14 -36 13 -32 -1 1 -6 -6 -16 -15 -22 -14 -9 -20 -8 -32 8
-13 18 -10 23 37 66 50 44 52 49 54 100 2 73 2 79 7 79 2 0 21 -7 42 -16z
m-97 -20 c12 -10 -16 -24 -49 -24 -39 0 -56 12 -45 30 5 9 82 4 94 -6z m-144
-4 c4 -6 -7 -10 -24 -10 -17 0 -31 5 -31 10 0 6 11 10 24 10 14 0 28 -4 31
-10z m-486 -112 c7 -11 10 -22 7 -25 -8 -9 -24 6 -39 37 -14 27 -14 28 3 18 9
-6 23 -20 29 -30z m235 -10 c3 -13 1 -27 -4 -32 -9 -9 -45 -2 -69 13 -21 14
-2 34 25 27 14 -4 24 -2 24 4 0 19 18 10 24 -12z m376 -202 c0 -9 -30 -14 -35
-6 -4 6 3 10 14 10 12 0 21 -2 21 -4z"/>
<path d="M3595 6350 c-22 -4 -46 -5 -53 -2 -7 2 -23 0 -35 -6 -31 -15 -96 -26
-134 -23 -18 1 -38 -1 -45 -6 -13 -8 -18 -9 -38 -12 -5 0 -10 -6 -10 -12 0 -5
5 -7 10 -4 6 3 10 1 10 -5 0 -7 -7 -10 -15 -7 -8 4 -29 -9 -51 -31 -29 -29
-37 -44 -36 -69 1 -22 -3 -33 -13 -33 -7 0 -14 -8 -15 -17 -3 -76 -9 -134 -14
-141 -2 -4 -1 -24 3 -44 5 -21 4 -43 -2 -53 -7 -14 -6 -21 7 -30 9 -7 16 -19
16 -28 0 -9 9 -21 20 -27 28 -15 25 -30 -5 -30 -37 0 -31 -27 10 -41 45 -17
48 -41 4 -32 -27 5 -31 3 -27 -13 4 -21 61 -36 132 -35 30 1 37 -3 32 -14 -8
-22 7 -18 22 5 7 11 19 20 27 20 20 0 19 -6 -5 -30 -11 -11 -20 -28 -20 -37 0
-13 3 -14 12 -5 22 22 39 14 32 -15 -7 -25 -6 -26 25 -20 26 6 31 4 31 -14 0
-11 -7 -22 -15 -25 -8 -4 -15 -17 -15 -30 0 -23 2 -23 66 -17 55 5 66 4 62 -8
-3 -9 -28 -17 -66 -23 -34 -5 -62 -12 -62 -15 1 -28 47 -42 157 -46 40 -2 76
-6 82 -9 17 -11 100 -16 105 -7 3 5 37 12 76 16 39 4 74 13 81 21 7 8 21 11
34 8 15 -4 24 0 28 10 4 10 19 16 42 16 19 0 35 5 35 11 0 5 5 7 10 4 6 -4 22
0 35 9 13 9 34 16 46 16 47 0 139 43 179 83 22 23 41 46 41 51 1 6 3 21 4 33
1 13 8 29 14 37 13 15 31 156 31 243 0 46 3 52 23 55 13 2 21 9 18 18 -1 8 -3
34 -2 58 0 38 -2 42 -19 37 -16 -5 -20 -2 -20 15 0 43 -17 59 -55 53 -26 -4
-36 -2 -40 10 -5 11 -19 14 -56 12 -40 -2 -49 1 -49 14 -1 29 -46 74 -69 68
-11 -2 -22 0 -24 7 -3 8 -9 7 -21 -3 -15 -13 -18 -12 -23 8 -8 30 -76 58 -70
29 3 -17 -27 -12 -86 14 -42 19 -52 20 -83 9 -32 -12 -38 -11 -57 7 -24 21
-78 27 -89 9 -5 -8 -13 -6 -26 6 -20 18 -34 19 -97 7z m-395 -284 c0 -3 -4 -8
-10 -11 -5 -3 -10 -1 -10 4 0 6 5 11 10 11 6 0 10 -2 10 -4z m605 -7 c11 -17
-1 -21 -15 -4 -8 9 -8 15 -2 15 6 0 14 -5 17 -11z m-50 -29 c3 -5 1 -10 -4
-10 -6 0 -11 5 -11 10 0 6 2 10 4 10 3 0 8 -4 11 -10z m-65 -16 c0 -9 -5 -14
-12 -12 -18 6 -21 28 -4 28 9 0 16 -7 16 -16z m-500 -49 c0 -8 -4 -15 -9 -15
-13 0 -22 16 -14 24 11 11 23 6 23 -9z m395 6 c9 -15 -36 -25 -49 -11 -8 10
-7 12 7 7 9 -4 17 -2 17 3 0 13 17 13 25 1z m-67 -33 c-3 -7 -15 -15 -28 -16
-21 -3 -22 -2 -11 12 16 19 44 21 39 4z m-80 -20 c19 -19 14 -35 -11 -42 -12
-3 -34 -24 -47 -46 -45 -74 -47 -76 -61 -63 -9 9 -9 16 -1 25 5 7 8 36 6 65
-2 28 0 55 6 58 6 3 10 -5 10 -19 0 -25 16 -43 28 -31 3 3 0 11 -8 16 -12 8
-10 9 6 5 15 -5 24 0 32 19 13 28 22 31 40 13z m225 -66 c-5 -32 -27 -41 -29
-11 0 11 27 50 32 45 1 0 -1 -16 -3 -34z m260 18 c9 0 17 -7 17 -15 0 -16 -52
-21 -84 -9 -25 10 2 37 28 30 12 -3 29 -6 39 -6z m114 -34 c24 -24 51 -47 59
-50 9 -3 14 -14 12 -23 -3 -17 -26 -24 -113 -36 -11 -2 -32 -9 -48 -17 -35
-17 -46 -6 -20 23 36 38 55 86 48 118 -9 42 9 37 62 -15z m-426 -7 c16 -8 18
-13 9 -24 -9 -11 -16 -12 -31 -2 -20 13 -26 37 -8 37 6 0 19 -5 30 -11z m85
-74 c20 -43 13 -60 -13 -34 -6 6 -26 14 -44 18 -38 8 -46 22 -24 45 30 29 58
19 81 -29z m-218 -55 c-2 -10 6 -25 16 -33 19 -14 19 -14 0 -40 -17 -24 -57
-39 -52 -19 1 4 -4 18 -11 32 -10 17 -11 25 -2 28 6 2 11 9 11 16 0 14 20 36
33 36 4 0 7 -9 5 -20z m444 -14 c27 -20 11 -26 -66 -26 -76 0 -80 12 -11 29
54 12 58 12 77 -3z m249 -9 c-13 -13 -26 -3 -16 12 3 6 11 8 17 5 6 -4 6 -10
-1 -17z m149 -98 c0 -5 -4 -9 -10 -9 -5 0 -10 7 -10 16 0 8 5 12 10 9 6 -3 10
-10 10 -16z m-800 -39 c0 -5 -4 -10 -10 -10 -5 0 -10 5 -10 10 0 6 5 10 10 10
6 0 10 -4 10 -10z m405 -60 c-3 -5 -11 -10 -16 -10 -6 0 -7 5 -4 10 3 6 11 10
16 10 6 0 7 -4 4 -10z"/>
<path d="M2934 6319 c-10 -17 -13 -119 -3 -119 6 0 7 -9 4 -21 -11 -32 5 -139
20 -139 19 0 20 12 17 152 -2 97 -6 128 -17 132 -8 3 -17 1 -21 -5z"/>
<path d="M7080 6292 c-47 -45 -80 -104 -80 -144 0 -34 13 -36 34 -6 15 20 16
21 16 4 0 -11 3 -17 6 -13 11 11 34 -21 29 -40 -6 -20 6 4 43 87 31 67 35 143
10 148 -10 2 -35 -14 -58 -36z"/>
<path d="M6035 6270 c3 -5 13 -10 21 -10 8 0 14 5 14 10 0 6 -9 10 -21 10 -11
0 -17 -4 -14 -10z"/>
<path d="M4750 6145 c7 -9 15 -13 17 -11 7 7 -7 26 -19 26 -6 0 -6 -6 2 -15z"/>
<path d="M5410 6130 c20 -13 43 -13 35 0 -3 6 -16 10 -28 10 -18 0 -19 -2 -7
-10z"/>
<path d="M6710 6055 c0 -9 5 -15 11 -13 6 2 11 8 11 13 0 5 -5 11 -11 13 -6 2
-11 -4 -11 -13z"/>
<path d="M7016 5865 c-3 -9 -5 -35 -5 -58 1 -40 2 -40 9 13 9 57 7 73 -4 45z"/>
<path d="M6772 5831 c-18 -22 -32 -47 -32 -55 0 -8 -4 -17 -9 -21 -5 -3 0 -16
12 -29 41 -44 80 -118 85 -162 7 -65 21 -43 19 30 -1 35 -5 62 -9 60 -10 -6
-10 10 -1 20 10 10 12 49 3 61 -12 15 -15 47 -6 72 7 22 -7 63 -23 63 -4 0
-22 -18 -39 -39z"/>
<path d="M3367 5493 c-4 -3 -7 -11 -7 -17 0 -6 5 -5 12 2 6 6 9 14 7 17 -3 3
-9 2 -12 -2z"/>
<path d="M6810 5490 c0 -5 4 -10 9 -10 6 0 13 5 16 10 3 6 -1 10 -9 10 -9 0
-16 -4 -16 -10z"/>
<path d="M5620 5460 c0 -5 -11 -10 -25 -10 -18 0 -25 -5 -25 -20 0 -25 11 -25
38 0 20 19 29 40 17 40 -3 0 -5 -4 -5 -10z"/>
<path d="M4197 5274 c-4 -4 -14 -8 -24 -9 -48 -6 -61 -18 -72 -61 -11 -44 -26
-63 -75 -97 -15 -10 -26 -28 -26 -40 0 -14 -21 -41 -60 -75 -37 -33 -57 -58
-53 -67 3 -8 -2 -18 -11 -21 -9 -3 -16 -12 -16 -19 0 -7 -9 -24 -20 -38 -13
-16 -20 -40 -20 -66 0 -43 -18 -56 -27 -21 -6 22 -25 28 -22 8 4 -29 -2 -59
-10 -54 -4 3 -6 -7 -3 -22 4 -26 4 -26 -11 -8 -14 19 -15 18 -32 -17 -11 -24
-24 -37 -37 -37 -14 0 -18 5 -15 15 4 8 2 17 -4 20 -15 10 -79 -15 -79 -30 0
-9 6 -12 16 -8 14 5 14 3 5 -13 -6 -10 -17 -28 -26 -38 -15 -19 -15 -19 -38 2
-13 12 -33 22 -45 22 -13 0 -25 7 -28 15 -4 8 -9 15 -13 15 -11 0 -85 -76 -88
-89 -5 -20 26 -11 32 9 8 24 25 17 25 -11 0 -22 11 -24 28 -7 9 9 12 8 12 -5
0 -17 -5 -19 -44 -21 -20 -1 -45 -31 -34 -41 3 -4 18 1 31 10 25 16 25 16 20
-7 -3 -13 -13 -29 -21 -35 -9 -7 -12 -16 -8 -20 4 -4 10 -2 14 4 14 22 46 19
59 -7 7 -14 13 -19 13 -12 0 6 4 12 10 12 5 0 7 -6 4 -14 -4 -10 2 -12 20 -9
17 4 26 12 26 24 0 11 5 19 10 19 6 0 10 -4 10 -9 0 -5 8 -17 17 -26 16 -16
15 -18 -8 -35 -13 -10 -21 -21 -18 -24 3 -3 14 2 25 12 23 21 54 17 54 -6 1
-15 3 -14 15 2 20 26 19 50 0 42 -11 -4 -15 1 -15 18 0 24 -39 46 -41 23 0
-12 -17 21 -18 36 -1 5 15 -1 35 -12 34 -21 38 -21 55 -5 16 15 19 15 19 2 0
-9 -7 -21 -15 -28 -11 -9 -13 -16 -6 -23 12 -12 41 8 41 27 0 7 6 21 14 31 13
18 15 16 35 -25 14 -30 19 -54 15 -75 -4 -24 0 -37 20 -58 14 -15 35 -27 46
-27 13 0 19 -4 14 -11 -3 -6 0 -15 7 -20 11 -6 8 -9 -8 -9 -12 0 -25 5 -28 10
-12 20 -24 -1 -15 -25 5 -14 7 -25 4 -25 -2 0 0 -9 6 -19 10 -20 54 -26 47 -6
-3 5 6 11 19 11 22 2 24 -2 22 -43 -1 -33 3 -49 15 -58 9 -7 17 -20 17 -29 0
-18 25 -22 35 -6 4 6 12 10 18 9 40 -5 77 2 77 15 0 8 -7 16 -15 20 -15 5 -22
46 -7 46 10 0 92 -80 92 -91 0 -15 84 -96 118 -113 17 -9 32 -20 32 -25 0 -5
17 -12 38 -16 20 -3 57 -16 82 -27 25 -12 49 -20 54 -19 4 1 18 -5 30 -12 18
-12 25 -12 39 -2 25 18 21 28 -8 23 -14 -3 -25 -1 -25 4 0 10 11 14 60 22 27
4 31 3 18 -5 -21 -12 -24 -39 -5 -39 6 0 21 13 31 29 17 25 26 29 65 29 78 -1
129 9 147 27 12 11 26 15 45 11 22 -4 34 0 51 18 13 13 39 29 60 35 26 9 38
19 43 39 4 15 12 30 18 34 28 18 -66 6 -95 -12 -40 -24 -56 -25 -80 -3 -19 17
-29 12 -41 -20 -1 -5 -20 -11 -42 -13 -33 -5 -42 -2 -52 14 -18 29 6 45 59 40
28 -3 47 0 53 9 12 16 99 33 115 23 7 -4 25 -1 40 8 26 15 29 15 60 -11 30
-26 34 -27 50 -12 21 19 53 8 64 -21 5 -14 10 -13 29 10 12 14 26 26 30 26 14
0 67 43 67 54 0 11 45 36 63 36 12 0 67 56 67 69 0 6 9 11 21 11 11 0 32 13
47 29 15 16 44 34 65 41 20 6 37 16 37 21 0 5 9 9 21 9 15 0 19 -5 14 -19 -4
-13 0 -20 15 -24 12 -3 20 -13 20 -26 0 -12 5 -21 10 -21 6 0 10 -9 10 -20 0
-10 6 -23 14 -27 12 -7 11 -14 -5 -47 -10 -22 -17 -42 -14 -44 8 -9 45 30 45
47 0 9 9 22 20 29 11 7 20 21 20 31 0 11 5 23 11 27 6 3 8 16 5 28 -4 16 2 29
19 44 29 25 31 37 10 46 -17 6 -21 46 -5 46 21 0 28 44 14 84 -8 21 -11 42 -8
48 3 5 -1 24 -10 43 -9 18 -13 40 -10 49 4 11 1 16 -12 16 -9 0 -15 3 -12 6 7
6 -27 44 -39 44 -18 1 -88 63 -88 78 0 12 -7 16 -22 14 -16 -2 -22 3 -25 20
-2 14 -12 24 -28 28 -14 3 -30 17 -37 30 -6 13 -19 27 -27 32 -9 5 -16 22 -16
38 0 20 -5 30 -15 30 -20 0 -92 75 -87 89 2 6 -8 11 -22 11 -16 0 -32 9 -42
26 -9 14 -23 23 -30 20 -8 -3 -14 -1 -14 4 0 6 -6 10 -13 10 -8 0 -22 9 -32
20 -10 11 -24 20 -30 20 -7 0 -18 7 -25 15 -7 8 -22 15 -33 15 -12 0 -38 12
-59 26 -45 31 -65 23 -27 -10 36 -31 52 -63 45 -91 -4 -14 0 -27 8 -35 8 -6
18 -25 21 -41 4 -16 10 -29 14 -29 11 0 11 -69 0 -76 -13 -7 -1 -24 17 -24 8
0 14 9 14 19 0 22 31 19 51 -5 6 -8 21 -14 33 -14 32 -1 64 -33 71 -74 6 -30
11 -36 26 -31 13 5 19 1 19 -10 0 -8 7 -18 15 -22 18 -6 48 -60 41 -72 -3 -4
4 -15 15 -24 10 -9 19 -28 19 -42 0 -23 22 -35 33 -17 2 4 2 1 0 -7 -5 -21 45
-63 68 -56 13 4 19 2 19 -9 0 -8 9 -20 20 -26 11 -6 20 -21 20 -34 0 -20 -4
-23 -29 -20 -17 2 -34 -3 -41 -11 -7 -8 -20 -15 -30 -15 -22 0 -62 -20 -85
-44 -14 -13 -29 -17 -59 -14 -29 3 -49 -1 -67 -13 -20 -14 -39 -17 -75 -14
-127 11 -389 4 -405 -12 -6 -6 -26 -9 -44 -6 -19 2 -46 -2 -64 -11 -29 -16
-49 -8 -36 14 4 6 -5 5 -20 -2 -21 -9 -31 -9 -47 1 -16 10 -22 10 -28 1 -6 -9
-12 -9 -30 0 -12 6 -31 9 -42 7 -13 -4 -17 -2 -10 6 10 15 13 57 4 57 -7 0
-19 -25 -37 -75 -7 -20 -7 -20 -17 2 -11 22 -23 27 -99 38 -37 6 -47 4 -52 -9
-9 -23 -77 -18 -77 6 0 5 4 7 9 4 14 -9 31 19 29 45 -2 19 2 24 20 23 16 0 19
3 12 10 -15 15 -12 30 3 17 8 -6 18 -7 22 -3 5 4 6 2 2 -3 -3 -6 3 -17 15 -24
18 -11 19 -10 13 8 -8 25 11 27 39 6 27 -20 46 -19 46 3 0 29 9 32 47 16 27
-12 38 -12 49 -3 11 9 18 9 26 1 9 -9 16 -8 30 4 16 15 18 15 24 0 8 -21 16
-20 44 4 28 24 43 25 60 5 18 -21 40 -19 40 5 0 19 5 20 58 14 51 -6 55 -5 38
8 -14 11 -17 22 -11 46 8 41 24 41 32 1 3 -16 9 -27 14 -22 16 16 -3 52 -32
62 -22 7 -29 16 -29 35 0 15 4 26 10 26 5 0 7 13 4 29 -10 48 27 87 95 101 31
6 66 12 79 12 23 0 102 63 102 81 0 5 -13 7 -30 4 -16 -4 -32 -2 -35 3 -7 11
-140 -26 -171 -48 -13 -9 -24 -22 -24 -29 -1 -38 -121 -126 -155 -114 -5 2
-25 5 -44 6 -36 3 -76 30 -66 45 10 16 -63 11 -89 -5 -18 -12 -30 -13 -47 -6
-13 6 -43 15 -66 21 -33 8 -47 19 -70 54 -15 25 -36 47 -45 49 -10 3 -18 12
-18 21 0 10 -9 16 -25 16 -14 0 -25 5 -25 11 0 7 -12 10 -29 7 -20 -3 -32 1
-40 14 -13 21 -15 104 -2 112 13 9 71 135 71 157 0 10 5 21 10 24 6 4 8 11 5
16 -7 10 -19 12 -28 3z m993 -264 c0 -5 -2 -10 -4 -10 -3 0 -8 5 -11 10 -3 6
-1 10 4 10 6 0 11 -4 11 -10z m-972 -388 c2 -12 8 -22 14 -22 6 0 6 -6 -2 -15
-10 -13 -9 -15 9 -15 11 0 21 -4 21 -10 0 -5 -13 -10 -29 -10 -21 0 -28 5 -27
16 0 9 -4 19 -11 21 -16 6 -9 -47 8 -58 8 -4 18 -4 23 1 11 11 39 -16 31 -31
-4 -6 -14 -8 -22 -5 -17 7 -53 -10 -53 -24 0 -6 6 -10 14 -10 8 0 17 -7 20
-16 5 -13 1 -15 -16 -11 -13 4 -41 2 -63 -3 -25 -6 -44 -5 -52 1 -7 6 -16 8
-21 5 -11 -7 -55 51 -47 64 3 5 6 25 7 45 1 41 7 43 32 13 l18 -21 14 31 c7
18 16 32 19 32 3 0 4 -4 1 -9 -3 -5 1 -12 10 -15 26 -10 54 -7 56 7 0 6 2 21
3 32 1 11 3 23 4 27 3 16 36 -1 39 -20z m-774 -37 c-4 -8 -11 -15 -16 -15 -6
0 -5 6 2 15 7 8 14 15 16 15 2 0 1 -7 -2 -15z m901 -15 c3 -5 -3 -10 -14 -10
-12 0 -21 5 -21 10 0 6 6 10 14 10 8 0 18 -4 21 -10z m-845 -9 c0 -6 -4 -13
-10 -16 -5 -3 -10 1 -10 9 0 9 5 16 10 16 6 0 10 -4 10 -9z m130 -31 c0 -5 -5
-10 -11 -10 -5 0 -7 5 -4 10 3 6 8 10 11 10 2 0 4 -4 4 -10z m-113 -41 c-5
-20 -5 -20 14 -3 10 9 22 15 25 11 10 -10 -41 -37 -64 -32 -31 6 -43 15 -36
27 4 7 9 6 14 -1 7 -13 40 -4 40 10 0 5 3 9 6 9 4 0 4 -9 1 -21z m1630 -151
c4 -7 10 -35 14 -62 11 -91 -45 -144 -112 -103 -18 10 -23 9 -36 -10 -12 -18
-25 -23 -59 -23 -23 0 -46 5 -49 10 -9 15 -25 2 -25 -20 0 -15 -11 -20 -65
-25 -36 -4 -77 -5 -93 -2 -15 3 -62 -1 -106 -9 -77 -15 -79 -15 -102 7 -19 18
-27 20 -36 11 -19 -19 -73 -14 -93 8 -14 16 -17 30 -12 75 7 69 11 75 52 75
41 0 55 -20 55 -79 0 -23 4 -41 9 -41 14 0 19 22 15 68 -3 38 -1 43 26 57 36
19 79 19 105 1 25 -16 42 -14 101 15 33 15 66 22 114 23 38 1 72 4 76 9 17 17
74 6 101 -19 19 -17 24 -27 16 -31 -15 -6 -18 -53 -3 -53 6 0 11 3 11 8 1 4 3
23 5 42 6 52 70 100 91 68z m112 -32 c15 -18 8 -86 -10 -97 -19 -12 -56 -11
-64 1 -8 13 9 75 27 94 17 19 32 20 47 2z m441 -7 c0 -5 -7 -9 -15 -9 -15 0
-20 12 -9 23 8 8 24 -1 24 -14z m-1786 -55 c9 -23 7 -54 -3 -54 -9 0 -21 33
-21 58 0 17 17 15 24 -4z m392 -25 c-5 -34 -2 -44 20 -66 28 -28 26 -38 -5
-28 -14 4 -21 15 -21 31 0 14 -7 27 -15 30 -9 4 -15 19 -15 40 0 28 4 34 21
34 19 0 20 -4 15 -41z m-316 -59 c0 -5 -9 -14 -20 -20 -22 -12 -27 -1 -8 18
14 14 28 16 28 2z m1200 -50 c0 -5 -7 -10 -15 -10 -8 0 -15 5 -15 10 0 6 7 10
15 10 8 0 15 -4 15 -10z m-751 -54 c8 -9 24 -12 50 -9 21 3 46 1 55 -4 16 -9
16 -11 -2 -34 l-20 -24 -42 23 c-23 12 -50 22 -60 22 -35 0 -52 11 -39 26 15
18 43 18 58 0z m229 -18 c4 -21 -58 -44 -70 -26 -12 19 -4 32 23 39 32 9 43 6
47 -13z m-388 -98 c0 -5 -5 -10 -11 -10 -5 0 -7 5 -4 10 3 6 8 10 11 10 2 0 4
-4 4 -10z"/>
<path d="M4882 4279 c-13 -21 -8 -59 8 -59 5 0 8 13 8 29 -1 15 2 33 6 40 4 6
3 11 -1 11 -5 0 -14 -9 -21 -21z"/>
<path d="M4675 4220 c-7 -12 2 -30 16 -30 12 0 12 27 0 35 -5 3 -12 1 -16 -5z"/>
<path d="M4496 4841 c-3 -5 8 -11 24 -13 24 -4 27 -2 19 9 -13 15 -35 17 -43
4z"/>
<path d="M3540 4674 c0 -9 5 -14 12 -12 18 6 21 28 4 28 -9 0 -16 -7 -16 -16z"/>
<path d="M3522 4627 c-9 -11 -10 -17 -2 -22 15 -9 23 -1 18 21 -3 15 -4 16
-16 1z"/>
<path d="M4456 4451 c-4 -5 -2 -12 3 -15 5 -4 12 -2 15 3 4 5 2 12 -3 15 -5 4
-12 2 -15 -3z"/>
<path d="M5400 4440 c0 -5 5 -10 11 -10 5 0 7 5 4 10 -3 6 -8 10 -11 10 -2 0
-4 -4 -4 -10z"/>
<path d="M3730 4411 c0 -5 5 -13 10 -16 6 -3 10 -2 10 4 0 5 -4 13 -10 16 -5
3 -10 2 -10 -4z"/>
<path d="M3586 4324 c-4 -9 -4 -19 -1 -22 2 -3 7 3 11 12 4 9 4 19 1 22 -2 3
-7 -3 -11 -12z"/>
<path d="M6549 3868 c1 -139 -3 -275 -8 -303 -21 -111 -44 -190 -61 -211 -7
-7 -9 -18 -5 -24 4 -6 -3 -22 -15 -35 -16 -17 -22 -36 -22 -72 0 -26 -4 -52
-8 -58 -9 -12 -25 -76 -22 -89 6 -19 -21 -77 -39 -86 -11 -6 -19 -21 -19 -35
0 -13 -11 -48 -23 -77 -13 -29 -22 -58 -20 -64 2 -6 -7 -10 -19 -10 -20 1 -23
-3 -20 -31 2 -20 -1 -33 -8 -33 -7 0 -10 -6 -7 -14 3 -8 -1 -17 -10 -20 -8 -4
-13 -13 -10 -20 6 -15 -25 -62 -55 -84 -10 -7 -18 -25 -18 -40 0 -20 -3 -23
-12 -14 -18 18 -33 15 -18 -3 10 -12 10 -19 2 -27 -7 -7 -12 -22 -12 -34 0
-17 -5 -21 -18 -17 -12 3 -25 -4 -36 -21 -9 -14 -22 -26 -29 -26 -18 0 -59
-47 -48 -55 13 -7 -8 -45 -25 -45 -7 0 -14 -7 -18 -15 -3 -8 -17 -15 -31 -15
-16 0 -25 -6 -25 -15 0 -8 7 -15 16 -15 8 0 12 -5 9 -10 -5 -8 -11 -7 -20 0
-17 14 -35 5 -35 -17 0 -9 6 -13 15 -9 9 3 15 0 15 -10 0 -9 -7 -14 -17 -12
-11 2 -17 -2 -15 -10 5 -25 -17 -50 -38 -45 -16 4 -19 2 -13 -12 4 -13 3 -16
-5 -11 -9 5 -11 -2 -10 -26 2 -27 0 -32 -14 -30 -14 2 -18 -4 -18 -32 0 -19
-6 -41 -13 -48 -8 -7 -17 -26 -21 -41 -5 -21 -2 -29 11 -34 9 -4 19 -1 21 5 2
7 8 10 13 7 5 -3 -14 -29 -41 -56 -37 -37 -50 -58 -50 -80 0 -31 -6 -29 94
-33 22 -1 32 -5 29 -13 -3 -7 -10 -13 -17 -13 -13 0 -31 -20 -59 -63 -15 -23
-15 -27 -2 -27 8 0 24 5 35 12 27 17 33 6 16 -33 -8 -19 -13 -56 -11 -84 2
-48 3 -50 28 -47 21 2 28 -3 33 -23 3 -14 10 -25 15 -25 5 0 7 -11 3 -25 -5
-19 -2 -27 12 -32 11 -4 39 -26 64 -50 26 -25 51 -41 60 -38 11 4 20 -5 28
-27 7 -18 31 -47 55 -65 23 -18 59 -49 80 -69 30 -30 47 -38 86 -42 58 -5 94
12 163 75 36 34 48 41 48 28 0 -10 -40 -99 -89 -199 -162 -332 -189 -396 -168
-396 44 0 553 181 572 203 6 7 16 12 23 13 27 2 30 5 25 24 -6 23 0 25 27 8
22 -14 39 -3 22 14 -7 7 -12 16 -12 20 0 14 32 8 44 -8 10 -14 31 -6 166 64
202 103 324 174 495 287 470 312 1004 856 1270 1296 l54 89 -27 5 c-15 3 -83
28 -152 54 -69 27 -141 52 -160 56 -19 4 -44 14 -55 21 -11 8 -28 14 -37 14
-10 0 -26 4 -36 9 -62 33 -93 41 -112 31 -20 -11 -60 5 -60 23 0 5 -11 6 -25
3 -20 -5 -25 -3 -25 11 0 14 -15 22 -62 35 -35 9 -106 28 -158 43 -52 15 -133
37 -180 49 -120 32 -343 109 -421 145 -76 34 -227 154 -257 204 -28 44 -62 73
-94 81 -34 8 -35 2 -9 -102 27 -109 35 -185 20 -180 -12 4 -34 88 -89 333 -32
140 -87 284 -153 402 -48 84 -201 273 -222 273 -3 0 -6 -114 -6 -252z m489
-526 c6 -18 -15 -14 -22 4 -4 10 -1 14 6 12 6 -2 14 -10 16 -16z m-928 -1207
c89 -31 159 -114 160 -190 0 -16 -7 -63 -17 -103 l-17 -72 30 -61 c34 -71 90
-126 212 -207 46 -30 86 -61 89 -68 6 -16 -36 -74 -54 -74 -17 0 -116 65 -195
128 -65 51 -108 104 -127 154 -12 31 1 132 20 154 17 21 2 111 -26 159 -43 73
-125 120 -197 112 -28 -4 -48 -2 -48 3 0 19 39 49 82 64 24 8 44 15 44 16 1 0
20 -7 44 -15z m-204 -116 c4 -6 19 -9 36 -5 55 11 104 -4 153 -48 25 -22 47
-48 48 -56 2 -8 5 -19 9 -25 15 -26 20 -78 7 -86 -25 -16 -37 -10 -44 21 -11
48 -104 124 -170 139 -40 9 -59 9 -75 1 -11 -6 -25 -8 -30 -5 -6 3 -10 1 -10
-4 0 -6 -7 -11 -15 -11 -8 0 -15 5 -15 10 0 6 6 10 14 10 7 0 26 16 40 35 28
37 40 42 52 24z m-118 -47 c2 -7 -3 -12 -12 -12 -9 0 -16 7 -16 16 0 17 22 14
28 -4z m368 -208 c-3 -9 -6 -18 -6 -20 0 -3 -4 -3 -10 1 -11 7 -2 35 12 35 6
0 7 -7 4 -16z m1832 -118 c2 -11 -4 -19 -17 -23 -12 -3 -21 -12 -21 -19 0 -19
-26 -18 -34 2 -11 29 -6 40 22 51 34 14 46 11 50 -11z m-1858 -35 c0 -12 -20
-25 -27 -18 -7 7 6 27 18 27 5 0 9 -4 9 -9z m1768 -55 c3 -12 -1 -17 -10 -14
-7 3 -15 13 -16 22 -3 12 1 17 10 14 7 -3 15 -13 16 -22z m-1759 -15 c18 -16
28 -32 22 -35 -5 -4 -14 2 -20 11 -5 10 -12 15 -16 12 -9 -9 34 -78 56 -90 27
-14 44 -1 26 19 -39 47 -26 58 17 15 20 -19 26 -33 21 -50 -4 -16 -1 -23 9
-23 8 0 18 4 21 10 4 6 10 6 18 0 48 -40 92 -70 103 -70 8 0 14 -4 14 -10 0
-5 7 -10 15 -10 17 0 20 -16 5 -25 -6 -3 -13 1 -16 9 -3 9 -14 16 -25 16 -10
0 -22 8 -28 17 -5 10 -13 14 -17 10 -5 -5 -2 -12 5 -16 11 -7 9 -13 -8 -30
-24 -24 -22 -25 -86 29 -112 95 -155 156 -155 221 0 24 0 24 39 -10z m1711
-22 c0 -18 -2 -19 -15 -9 -8 7 -15 16 -15 21 0 5 7 9 15 9 9 0 15 -9 15 -21z
m-52 -33 c3 -12 -1 -17 -10 -14 -7 3 -15 13 -16 22 -3 12 1 17 10 14 7 -3 15
-13 16 -22z m-50 -18 c16 -16 15 -28 -3 -28 -8 0 -15 2 -15 4 0 2 -3 11 -6 20
-7 19 7 21 24 4z m-40 -51 c5 -24 -15 -21 -28 4 -10 18 -9 20 7 17 10 -2 19
-11 21 -21z m-48 -28 c0 -24 -23 -21 -28 4 -2 10 3 17 12 17 10 0 16 -9 16
-21z m-50 -30 c10 -18 9 -20 -7 -17 -10 2 -19 11 -21 21 -5 24 15 21 28 -4z
m-50 -24 c7 -9 10 -18 7 -22 -8 -7 -37 15 -37 28 0 14 16 11 30 -6z m-50 -30
c7 -9 10 -18 7 -22 -8 -7 -37 15 -37 28 0 14 16 11 30 -6z m-50 -24 c7 -14 7
-22 -1 -27 -13 -8 -41 24 -33 37 9 15 23 10 34 -10z m-1070 -15 c0 -2 -7 -9
-15 -16 -12 -10 -15 -10 -15 4 0 9 7 16 15 16 8 0 15 -2 15 -4z m1004 -2 c16
-6 23 -44 8 -44 -12 0 -32 23 -32 37 0 15 2 15 24 7z m-34 -48 c0 -24 -18 -28
-30 -6 -9 17 -8 20 10 20 11 0 20 -6 20 -14z m-50 -42 c0 -18 -14 -18 -30 1
-16 19 -3 40 16 24 8 -6 14 -18 14 -25z m-50 -25 c0 -17 -3 -18 -20 -9 -20 11
-25 22 -14 33 11 11 34 -5 34 -24z m-46 -25 c4 -9 4 -19 2 -22 -10 -9 -36 8
-36 23 0 20 26 19 34 -1z m-54 -29 c19 -23 1 -39 -21 -19 -10 9 -16 21 -13 25
8 13 20 11 34 -6z m-40 -51 c0 -16 -26 -19 -35 -4 -4 6 -4 18 -1 27 5 12 9 13
21 3 8 -7 15 -19 15 -26z m-50 -23 c7 -14 7 -22 -1 -27 -14 -8 -43 21 -35 35
11 17 24 13 36 -8z m-50 -42 c0 -24 -23 -21 -28 4 -2 10 3 17 12 17 10 0 16
-9 16 -21z m-50 -29 c8 -15 8 -20 -3 -20 -14 0 -37 19 -37 32 0 16 30 7 40
-12z m-42 -44 c3 -13 -1 -17 -14 -14 -11 2 -20 11 -22 22 -3 13 1 17 14 14 11
-2 20 -11 22 -22z"/>
<path d="M6295 1340 c-3 -5 -1 -10 4 -10 6 0 11 5 11 10 0 6 -2 10 -4 10 -3 0
-8 -4 -11 -10z"/>
<path d="M3260 4048 c0 -9 5 -20 11 -23 17 -11 20 0 4 21 -13 17 -14 17 -15 2z"/>
<path d="M3290 3986 c0 -19 91 -208 105 -218 17 -13 45 -9 45 6 0 8 -7 17 -16
20 -11 4 -15 14 -12 31 6 27 -10 33 -30 13 -9 -9 -12 -8 -12 6 0 19 -25 68
-48 98 -8 9 -11 21 -8 26 3 5 -1 15 -9 22 -12 10 -15 9 -15 -4z"/>
<path d="M4599 3818 c-4 -14 -4 -48 0 -48 17 1 31 19 25 33 -5 14 -22 24 -25
15z"/>
<path d="M3510 3795 c-9 -11 -16 -12 -26 -5 -15 14 -34 -14 -27 -40 3 -10 0
-21 -6 -24 -6 -4 -11 -14 -11 -23 0 -12 7 -14 29 -10 l30 6 -4 -46 c-3 -34 -1
-43 8 -34 14 14 30 15 22 1 -3 -5 -3 -15 1 -21 4 -8 9 -7 15 2 4 7 11 10 16 6
11 -12 -16 -25 -38 -20 -26 7 -24 -9 6 -37 25 -23 33 -50 16 -50 -5 0 -36 -37
-68 -82 -32 -46 -67 -95 -78 -110 -11 -15 -58 -83 -104 -150 -46 -68 -94 -135
-105 -150 -12 -15 -32 -42 -46 -62 -29 -41 -82 -65 -220 -100 -201 -52 -415
-117 -475 -145 -11 -6 -47 -18 -80 -27 -33 -9 -82 -25 -110 -35 -60 -22 -172
-58 -200 -64 -11 -3 -31 -9 -45 -14 -14 -5 -45 -14 -70 -21 -25 -7 -67 -21
-94 -31 -27 -10 -57 -19 -67 -19 -10 0 -21 -4 -24 -10 -3 -5 -19 -10 -34 -10
-15 0 -31 -4 -37 -9 -5 -4 -40 -18 -79 -31 -38 -12 -82 -29 -97 -36 -14 -8
-33 -14 -41 -14 -13 0 -58 -18 -99 -41 -10 -5 -25 -9 -33 -9 -13 0 -14 -4 -5
-21 11 -19 13 -19 29 -5 19 18 41 21 41 7 0 -5 -9 -13 -20 -16 -27 -8 -25 -19
8 -63 140 -189 407 -470 652 -689 170 -151 436 -342 655 -468 151 -87 384
-205 406 -205 20 0 27 34 10 44 -15 9 -51 90 -51 114 0 11 -4 23 -9 26 -4 3
-12 20 -16 38 -5 18 -10 42 -13 53 -8 35 -10 189 -2 204 5 10 11 4 19 -21 6
-19 27 -53 46 -76 19 -22 35 -47 35 -56 0 -9 7 -16 15 -16 9 0 18 -7 21 -15 4
-8 10 -13 14 -10 4 3 22 -2 40 -11 52 -26 213 -15 320 23 104 37 134 54 208
125 56 54 82 103 82 155 0 27 25 47 47 38 10 -5 23 -7 28 -5 20 5 99 0 105 -8
3 -4 12 -7 20 -7 8 0 15 -9 15 -20 0 -16 7 -20 28 -18 19 1 37 -8 61 -33 32
-32 35 -34 60 -20 17 9 23 17 16 21 -8 5 -8 11 -1 19 15 18 3 27 -25 20 -13
-4 -24 -2 -24 2 0 13 46 32 58 25 12 -7 102 -183 102 -199 0 -6 11 -36 25 -66
14 -30 25 -57 25 -60 0 -3 11 -29 24 -58 28 -63 46 -119 82 -259 28 -107 32
-184 15 -286 -7 -47 -6 -52 13 -57 11 -3 24 -2 28 2 5 5 13 48 19 98 22 177
112 389 239 564 38 52 86 121 107 153 21 32 52 78 70 102 l31 43 -32 -22 c-18
-11 -39 -33 -45 -49 -15 -32 -55 -60 -44 -30 6 16 5 16 -10 4 -20 -16 -47 -8
-47 14 0 8 -6 15 -14 15 -8 0 -26 14 -39 30 -14 17 -32 30 -39 30 -7 0 -33 11
-57 25 -23 14 -49 25 -57 25 -8 0 -14 5 -14 10 0 18 -22 10 -27 -10 -3 -11 -8
-20 -12 -20 -16 0 -71 64 -71 81 0 25 -26 49 -86 78 -27 13 -56 28 -64 32 -8
5 -24 13 -35 18 -28 12 -104 84 -82 77 9 -3 17 0 17 5 0 6 8 9 18 7 22 -6 61
39 40 47 -19 7 -20 41 -2 55 7 7 21 9 30 6 14 -5 15 -4 4 9 -7 8 -10 22 -6 30
3 9 2 13 -4 10 -6 -3 -10 3 -10 14 0 11 -9 35 -20 54 -11 19 -18 42 -14 51 3
9 2 22 -4 29 -6 6 -12 23 -14 37 -2 14 -9 24 -16 22 -7 -1 -12 9 -12 24 0 16
-11 35 -30 51 -16 13 -30 29 -30 35 0 6 -14 26 -30 45 -31 34 -32 53 -4 53 8
0 12 5 9 10 -3 6 -15 10 -26 10 -10 0 -19 5 -19 11 0 9 -30 80 -51 120 -5 9
-2 27 7 43 19 38 18 43 -11 68 -23 20 -37 76 -15 63 6 -3 10 -1 10 4 0 6 -4
11 -10 11 -5 0 -10 9 -10 20 0 12 -7 20 -17 21 -11 0 -13 3 -5 6 6 2 12 9 12
15 0 6 -7 8 -15 4 -17 -6 -21 9 -5 19 15 9 12 28 -4 22 -9 -4 -16 3 -20 19 -4
13 -10 24 -14 24 -5 0 -7 21 -5 48 3 39 -1 52 -21 77 -20 23 -25 26 -26 13 0
-10 -7 -18 -15 -18 -12 0 -14 8 -9 41 6 38 5 41 -13 35 -26 -8 -37 17 -22 46
9 16 7 24 -6 37 -14 12 -18 13 -22 3 -6 -17 -38 42 -46 86 l-7 32 25 -16 c14
-9 25 -25 25 -35 0 -11 6 -19 13 -19 6 0 21 -13 32 -29 10 -16 23 -27 27 -25
12 7 98 -87 98 -108 0 -9 5 -20 10 -23 6 -3 10 -13 10 -21 0 -9 16 -35 35 -58
19 -24 35 -50 35 -60 0 -9 6 -16 14 -16 8 0 20 -16 26 -35 6 -19 15 -35 20
-35 13 0 21 -32 10 -45 -7 -8 -3 -16 15 -25 14 -7 25 -19 25 -26 0 -7 6 -17
13 -21 7 -4 26 -25 42 -45 23 -29 33 -35 46 -27 14 7 16 5 12 -11 -7 -26 42
-70 78 -70 18 0 32 -7 39 -20 6 -11 15 -20 21 -20 6 0 30 -20 55 -45 24 -25
51 -45 61 -45 10 0 28 -7 41 -15 12 -9 34 -18 49 -20 51 -8 103 -30 108 -45 3
-9 19 -16 40 -17 26 -1 39 4 54 22 12 16 28 24 47 24 45 -2 238 37 273 54 17
8 39 13 50 10 10 -3 36 3 58 13 l38 19 -40 6 c-22 4 -48 3 -57 -2 -22 -12 -23
-5 -2 15 14 15 14 16 -5 16 -12 0 -21 4 -21 9 0 9 -58 -1 -79 -13 -14 -9 -14
-3 1 29 10 23 24 30 56 26 17 -3 15 7 -9 32 l-20 22 -29 -35 -29 -35 -1 33 c0
46 16 72 45 72 15 0 31 10 40 24 15 23 71 41 80 25 13 -21 74 17 68 42 -5 16
-1 17 31 7 30 -9 39 -9 54 5 10 10 21 14 25 11 3 -4 9 5 13 20 8 33 47 45 70
22 21 -22 48 -2 41 31 -3 15 1 23 10 23 10 0 12 6 8 19 -7 22 13 40 24 22 10
-15 39 -4 52 20 5 11 17 19 27 19 9 0 27 10 40 23 74 71 81 81 78 109 -2 16 0
31 5 34 16 10 9 24 -11 24 -25 0 -80 -27 -80 -39 0 -5 -11 -8 -24 -7 -14 0
-22 6 -19 14 9 22 -13 13 -40 -18 -15 -16 -22 -30 -16 -30 5 0 8 -4 4 -9 -3
-5 -39 -9 -79 -9 -41 1 -88 -5 -104 -11 -24 -10 -35 -10 -52 -1 l-23 12 26 24
c14 13 28 33 32 44 4 13 15 20 32 20 30 0 64 38 57 63 -3 9 2 24 10 33 9 8 16
24 16 34 0 16 -7 19 -40 17 -37 -1 -40 -3 -40 -30 0 -26 -3 -29 -26 -24 -22 4
-31 -2 -57 -39 -17 -24 -38 -44 -47 -44 -16 0 -41 -24 -60 -59 -7 -13 -25 -23
-50 -27 -22 -4 -47 -16 -58 -29 -25 -28 -56 -23 -79 12 l-16 24 -19 -31 c-14
-23 -17 -41 -12 -67 5 -28 4 -35 -7 -31 -9 3 -14 19 -13 42 l1 36 -61 2 c-33
0 -68 1 -76 0 -8 0 -55 -3 -105 -6 l-90 -5 -28 32 c-15 18 -26 25 -25 17 4
-20 -60 -14 -86 8 -11 10 -16 11 -12 5 13 -23 -12 -14 -31 10 -10 13 -31 27
-46 31 -15 3 -27 13 -27 21 0 8 -6 15 -12 15 -7 0 -23 11 -36 25 -13 13 -30
21 -37 18 -9 -3 -18 2 -21 12 -5 13 -14 15 -40 10 -27 -5 -34 -3 -34 10 0 8
-6 15 -14 15 -8 0 -16 7 -20 15 -3 8 -12 15 -21 15 -23 0 -55 36 -43 48 7 7 2
16 -15 27 -14 9 -27 25 -30 37 -5 18 -11 20 -46 15 -47 -6 -67 11 -77 64 -8
41 -57 92 -73 76 -8 -8 -10 -2 -5 21 5 25 3 32 -9 32 -8 0 -20 -7 -27 -15 -11
-14 -14 -13 -25 1 -9 13 -22 16 -53 11 -23 -3 -45 -1 -48 4 -3 5 -14 9 -25 9
-25 0 -24 12 1 28 12 7 20 8 20 2 0 -5 5 -10 10 -10 7 0 7 6 2 18 -5 9 -7 22
-5 29 2 6 -4 14 -15 17 -10 4 -25 18 -32 31 -14 25 -30 33 -30 15 0 -5 -5 -10
-11 -10 -5 0 -7 5 -4 10 8 13 -4 50 -16 50 -5 0 -9 -9 -9 -21 0 -28 -23 -19
-31 12 -6 20 -7 21 -8 4 -1 -19 -3 -18 -21 5 -25 31 -25 41 -1 67 18 19 18 22
3 38 -16 17 -15 17 11 0 l28 -18 -12 27 c-14 29 -31 33 -49 11z m2 -47 c-3
-12 -10 -17 -19 -14 -8 3 -17 6 -19 6 -2 0 -4 6 -4 14 0 8 10 14 24 14 18 0
22 -5 18 -20z m83 -148 c3 -5 1 -10 -4 -10 -6 0 -11 5 -11 10 0 6 2 10 4 10 3
0 8 -4 11 -10z m-1 -36 c9 -22 -1 -33 -24 -27 -26 7 -27 43 -1 43 10 0 22 -7
25 -16z m-4 -79 c0 -8 5 -15 10 -15 6 0 10 -9 10 -20 0 -11 -4 -20 -8 -20 -11
0 -43 56 -35 64 11 11 23 6 23 -9z m74 -97 c20 -40 20 -41 -4 -28 -11 6 -20
16 -20 22 0 6 -8 17 -17 24 -17 12 -16 13 4 14 14 0 27 -10 37 -32z m786 -483
c0 -8 -4 -15 -10 -15 -5 0 -10 7 -10 15 0 8 5 15 10 15 6 0 10 -7 10 -15z
m1100 11 c0 -3 -4 -8 -10 -11 -5 -3 -10 -1 -10 4 0 6 5 11 10 11 6 0 10 -2 10
-4z m-800 -41 c0 -8 -4 -15 -9 -15 -13 0 -22 16 -14 24 11 11 23 6 23 -9z
m633 -172 c-3 -7 -8 -13 -12 -13 -16 0 -20 14 -10 33 9 15 13 17 19 7 5 -7 6
-19 3 -27z m-2807 -8 c-11 -8 -29 -15 -40 -15 -36 0 7 25 49 29 6 0 1 -6 -9
-14z m1051 -72 c-3 -10 -5 -2 -5 17 0 19 2 27 5 18 2 -10 2 -26 0 -35z m1452
-31 c-10 -16 -53 -42 -71 -42 -4 0 -8 5 -8 11 0 6 7 9 15 5 8 -3 15 -1 15 4 0
7 32 28 58 39 1 1 -3 -7 -9 -17z m-29 -52 c0 -5 -5 -10 -11 -10 -5 0 -7 5 -4
10 3 6 8 10 11 10 2 0 4 -4 4 -10z m-1356 -106 c4 -14 22 -46 41 -72 19 -26
47 -75 62 -107 35 -72 136 -230 193 -301 23 -28 53 -71 66 -95 25 -44 138
-159 206 -211 20 -16 47 -28 59 -28 36 0 89 -58 89 -97 0 -23 5 -35 18 -39 9
-3 47 -19 85 -35 37 -16 76 -29 88 -29 14 0 19 -5 17 -17 -9 -45 -202 12 -373
110 -33 19 -70 50 -85 73 -8 12 -46 50 -85 85 -46 42 -70 71 -70 85 0 13 -12
35 -26 51 -47 49 -117 168 -184 308 -36 75 -65 142 -65 149 0 7 -3 16 -7 19
-8 9 -63 168 -63 186 0 22 27 -5 34 -35z m1476 -32 c0 -13 -12 -22 -22 -16
-10 6 -1 24 13 24 5 0 9 -4 9 -8z m-3605 -32 c-3 -5 -13 -10 -21 -10 -8 0 -12
5 -9 10 3 6 13 10 21 10 8 0 12 -4 9 -10z m-75 -6 c0 -9 -32 -33 -44 -34 -5 0
-1 9 9 20 18 20 35 26 35 14z m625 -84 c-3 -5 -11 -10 -16 -10 -6 0 -7 5 -4
10 3 6 11 10 16 10 6 0 7 -4 4 -10z m199 -339 c13 -20 -7 -67 -35 -83 -35 -20
-36 -12 -6 47 22 45 31 53 41 36z m-74 -132 c-7 -11 -14 -18 -17 -15 -8 8 5
36 17 36 7 0 7 -6 0 -21z m149 -118 c18 -16 30 -34 26 -40 -9 -16 -22 -14 -43
7 -10 9 -27 22 -37 28 -19 11 -13 34 9 34 7 0 27 -13 45 -29z m1660 -55 c7 -8
25 -18 41 -21 30 -7 82 -75 57 -75 -20 0 -127 82 -127 97 0 17 15 17 29 -1z
m-1589 -14 c0 -4 -5 -13 -12 -20 -18 -18 -28 -15 -28 8 0 13 7 20 20 20 11 0
20 -4 20 -8z m36 -61 c-10 -16 -36 -13 -36 3 0 17 21 27 34 16 4 -5 5 -13 2
-19z m42 -38 c-5 -26 -38 -29 -38 -4 0 15 6 21 21 21 14 0 19 -5 17 -17z m49
-40 c2 -6 -5 -14 -17 -18 -26 -8 -33 -3 -24 19 7 19 35 18 41 -1z m1679 -18
c10 -8 14 -15 8 -15 -5 0 -19 7 -30 15 -10 8 -14 15 -8 15 5 0 19 -7 30 -15z
m-1646 -25 c0 -13 -7 -20 -20 -20 -18 0 -19 3 -10 20 6 11 15 20 20 20 6 0 10
-9 10 -20z m48 -47 c2 -8 -5 -13 -17 -13 -12 0 -21 6 -21 16 0 18 31 15 38 -3z
m42 -37 c0 -8 -5 -18 -11 -22 -14 -8 -33 11 -25 25 10 16 36 13 36 -3z m40
-41 c0 -16 -27 -32 -37 -22 -3 4 -3 13 0 22 8 20 37 20 37 0z m40 -50 c0 -19
-20 -29 -32 -17 -8 8 -7 16 2 26 14 17 30 12 30 -9z m40 -39 c0 -8 -5 -18 -11
-22 -14 -8 -33 11 -25 25 10 16 36 13 36 -3z m40 -41 c0 -16 -27 -32 -37 -21
-7 7 16 36 28 36 5 0 9 -7 9 -15z m40 -45 c0 -12 -28 -25 -36 -17 -9 9 6 27
22 27 8 0 14 -5 14 -10z m36 -41 c3 -6 0 -15 -7 -20 -22 -14 -29 -11 -29 11 0
21 24 27 36 9z m34 -59 c0 -21 -24 -28 -35 -10 -8 14 3 30 21 30 8 0 14 -9 14
-20z m38 -43 c2 -12 -3 -17 -17 -17 -12 0 -21 6 -21 13 0 31 32 34 38 4z m32
-41 c0 -8 -4 -17 -9 -21 -12 -7 -24 12 -16 25 9 15 25 12 25 -4z m40 -57 c0
-5 -7 -9 -15 -9 -15 0 -20 12 -9 23 8 8 24 -1 24 -14z"/>
<path d="M3640 3786 c0 -9 5 -16 10 -16 6 0 10 4 10 9 0 6 -4 13 -10 16 -5 3
-10 -1 -10 -9z"/>
<path d="M4550 3775 c7 -9 15 -13 17 -11 7 7 -7 26 -19 26 -6 0 -6 -6 2 -15z"/>
<path d="M3566 3705 c-3 -9 0 -15 9 -15 8 0 15 7 15 15 0 8 -4 15 -9 15 -5 0
-11 -7 -15 -15z"/>
<path d="M3535 3700 c3 -5 8 -10 11 -10 2 0 4 5 4 10 0 6 -5 10 -11 10 -5 0
-7 -4 -4 -10z"/>
<path d="M3996 3681 c-4 -7 -5 -15 -2 -18 9 -9 19 4 14 18 -4 11 -6 11 -12 0z"/>
<path d="M3721 3618 c1 -15 17 -55 19 -48 9 33 7 60 -6 60 -8 0 -14 -6 -13
-12z"/>
<path d="M3769 3558 c-1 -5 -2 -11 -3 -15 -1 -5 -4 -13 -8 -18 -4 -6 -3 -16 1
-23 6 -9 12 -8 24 6 15 16 15 21 2 38 -8 10 -15 16 -16 12z"/>
<path d="M4740 3544 c0 -9 5 -14 12 -12 18 6 21 28 4 28 -9 0 -16 -7 -16 -16z"/>
<path d="M3980 3360 c0 -19 11 -26 23 -14 8 8 -3 34 -14 34 -5 0 -9 -9 -9 -20z"/>
<path d="M5524 3216 c-16 -12 -17 -17 -6 -28 11 -11 16 -10 28 6 26 36 14 48
-22 22z"/>
<path d="M5835 3150 c-3 -6 1 -13 10 -16 19 -8 30 0 20 15 -8 14 -22 14 -30 1z"/>
<path d="M4430 3020 c-15 -10 -15 -10 25 -10 3 0 5 3 6 7 1 12 -15 13 -31 3z"/>
<path d="M5134 2978 c-10 -16 4 -22 28 -11 l22 10 -22 5 c-12 4 -25 2 -28 -4z"/>
<path d="M8268 2813 c7 -3 16 -2 19 1 4 3 -2 6 -13 5 -11 0 -14 -3 -6 -6z"/>
<path d="M5560 2600 c0 -5 7 -10 16 -10 8 0 12 5 9 10 -3 6 -10 10 -16 10 -5
0 -9 -4 -9 -10z"/>
<path d="M5240 2551 c0 -5 5 -13 10 -16 6 -3 10 -2 10 4 0 5 -4 13 -10 16 -5
3 -10 2 -10 -4z"/>
<path d="M4130 2310 c0 -5 7 -10 15 -10 8 0 15 5 15 10 0 6 -7 10 -15 10 -8 0
-15 -4 -15 -10z"/>
<path d="M5453 2194 c-8 -21 13 -42 28 -27 13 13 5 43 -11 43 -6 0 -13 -7 -17
-16z"/>
<path d="M4280 1840 c0 -5 5 -10 11 -10 5 0 7 5 4 10 -3 6 -8 10 -11 10 -2 0
-4 -4 -4 -10z"/>
<path d="M5610 1769 c0 -5 5 -7 10 -4 6 3 10 8 10 11 0 2 -4 4 -10 4 -5 0 -10
-5 -10 -11z"/>
<path d="M5557 1738 c-10 -11 -17 -21 -15 -23 7 -7 51 20 50 30 -1 17 -16 14
-35 -7z"/>
<path d="M5378 1630 c-33 -10 -98 -61 -98 -77 0 -23 29 -13 42 14 8 17 25 30
44 35 17 4 37 15 44 23 14 16 8 17 -32 5z"/>
<path d="M5223 1533 c-10 -26 -23 -32 -57 -26 l-29 6 5 -47 c3 -26 8 -50 12
-53 6 -7 65 15 86 33 8 6 24 14 35 16 31 5 31 36 0 48 -18 7 -25 15 -21 25 3
9 0 15 -10 15 -8 0 -18 -8 -21 -17z"/>
<path d="M4833 653 c0 -40 2 -44 21 -39 12 3 26 6 31 6 6 0 9 16 7 38 -3 35
-7 39 -31 39 -26 0 -28 -3 -28 -44z"/>
<path d="M4830 506 c0 -17 41 -29 54 -16 12 12 8 15 -26 24 -21 5 -28 3 -28
-8z"/>
</g>
</svg>
